<?xml version="1.0" encoding="UTF-8"?>
<svg width="1200pt" height="1200pt" version="1.1" viewBox="0 0 1200 1200" xmlns="http://www.w3.org/2000/svg">
 <path d="m150 908.65v-796.15c0-20.711-16.789-37.5-37.5-37.5s-37.5 16.789-37.5 37.5v975c0 10.355 4.1992 19.73 10.984 26.516s16.16 10.984 26.516 10.984h975c20.711 0 37.5-16.789 37.5-37.5s-16.789-37.5-37.5-37.5h-907.84c91.199-316.76 365.71-555.24 692.96-594.24l-33.738 48.188c-11.879 16.965-7.7578 40.348 9.207 52.227s40.348 7.7578 52.23-9.2109l86.035-122.87c5.9375-8.4805 7.8789-18.57 6.2109-28.02-1.6641-9.4531-6.9375-18.27-15.422-24.207l-122.87-86.035c-16.965-11.883-40.348-7.7578-52.227 9.207-11.879 16.965-7.7578 40.348 9.207 52.227l49.109 34.387c-318.35 38.852-585.18 244.55-710.37 527z" fill-rule="evenodd"/>
</svg>
