<?xml version="1.0" encoding="UTF-8"?>
<svg width="1200pt" height="1200pt" version="1.1" viewBox="0 0 1200 1200" xmlns="http://www.w3.org/2000/svg">
 <g>
  <path d="m468.75 787.5c0 20.711-16.789 37.5-37.5 37.5s-37.5-16.789-37.5-37.5 16.789-37.5 37.5-37.5 37.5 16.789 37.5 37.5"/>
  <path d="m675 1012.5c0 20.711-16.789 37.5-37.5 37.5s-37.5-16.789-37.5-37.5 16.789-37.5 37.5-37.5 37.5 16.789 37.5 37.5"/>
  <path d="m825 787.5c0 20.711-16.789 37.5-37.5 37.5s-37.5-16.789-37.5-37.5 16.789-37.5 37.5-37.5 37.5 16.789 37.5 37.5"/>
  <path d="m525 525c0 20.711-16.789 37.5-37.5 37.5s-37.5-16.789-37.5-37.5 16.789-37.5 37.5-37.5 37.5 16.789 37.5 37.5"/>
  <path d="m206.25 937.5c0 20.711-16.789 37.5-37.5 37.5s-37.5-16.789-37.5-37.5 16.789-37.5 37.5-37.5 37.5 16.789 37.5 37.5"/>
  <path d="m1050 806.25c0 20.711-16.789 37.5-37.5 37.5s-37.5-16.789-37.5-37.5 16.789-37.5 37.5-37.5 37.5 16.789 37.5 37.5"/>
  <path d="m1012.5 318.75c0 20.711-16.789 37.5-37.5 37.5s-37.5-16.789-37.5-37.5 16.789-37.5 37.5-37.5 37.5 16.789 37.5 37.5"/>
  <path d="m806.25 93.75c0 20.711-16.789 37.5-37.5 37.5s-37.5-16.789-37.5-37.5 16.789-37.5 37.5-37.5 37.5 16.789 37.5 37.5"/>
  <path d="m975 562.5c0 20.711-16.789 37.5-37.5 37.5s-37.5-16.789-37.5-37.5 16.789-37.5 37.5-37.5 37.5 16.789 37.5 37.5"/>
  <path d="m412.5 337.5c0 20.711-16.789 37.5-37.5 37.5s-37.5-16.789-37.5-37.5 16.789-37.5 37.5-37.5 37.5 16.789 37.5 37.5"/>
  <path d="m675 262.5c0 20.711-16.789 37.5-37.5 37.5s-37.5-16.789-37.5-37.5 16.789-37.5 37.5-37.5 37.5 16.789 37.5 37.5"/>
  <path d="m1143.8 1125h-1068.8v-1068.8c0-6.6992-3.5742-12.887-9.375-16.238-5.8008-3.3477-12.949-3.3477-18.75 0-5.8008 3.3516-9.375 9.5391-9.375 16.238v1087.5c0 4.9727 1.9766 9.7422 5.4922 13.258 3.5156 3.5156 8.2852 5.4922 13.258 5.4922h1087.5c6.6992 0 12.887-3.5742 16.238-9.375 3.3477-5.8008 3.3477-12.949 0-18.75-3.3516-5.8008-9.5391-9.375-16.238-9.375z"/>
  <path d="m1143.8 37.5c-284.48 0-407.57 329.23-506.48 593.76-42.281 113.12-82.273 219.99-126.92 275.77-141.21 176.49-373.97 143.51-376.27 143.2-6.4922-0.74219-12.902 1.9492-16.922 7.1016-4.0156 5.1562-5.0586 12.027-2.7539 18.141 2.3086 6.1172 7.6289 10.59 14.051 11.805 18.695 2.5234 37.551 3.6992 56.418 3.5273 83.887 0 243-20.625 354.82-160.33 48.449-60.562 87.523-165 132.77-286.09 94.781-253.67 212.81-569.38 471.28-569.38 6.6992 0 12.887-3.5742 16.238-9.375 3.3477-5.8008 3.3477-12.949 0-18.75-3.3516-5.8008-9.5391-9.375-16.238-9.375z"/>
 </g>
</svg>
